# Apple ModelIO OBJ File: plane4
mtllib plane4.mtl
g plane_Plane
v 2.26593 -0.128301 0.817073
v 2.26593 -0.074072 0.817073
v 2.01317 -0.074072 1.06491
v 2.01317 -0.099234 1.06491
v 0.248202 0.269598 0.595281
v 0.248202 0.21975 0.595281
v 0.167149 0.375322 1.24205
v 0.167149 0.269473 1.24205
v -0.032353 0.378298 2.18038
v -0.053891 0.378204 2.0232
v -0.034461 0.330556 2.18038
v -0.075744 0.325713 2.03177
v 0.217749 0.356916 1.33602
v 0.217749 0.269473 1.33602
v -0.177933 0.270057 -1.13169
v -0.202223 0.235356 -1.13542
v -0.271888 0.279572 -0.912866
v -0.222178 0.350828 -0.910162
v 0.29 0.161162 -0.442227
v 0.29 0.269598 -0.442227
v 2.23296 -0.074072 0.704979
v 2.23296 -0.140998 0.704979
v -2.23296 -0.140998 0.704979
v -2.26593 -0.128301 0.817073
v -2.26593 -0.074072 0.817073
v -2.23296 -0.074072 0.704979
v -2.01317 -0.099234 1.06491
v -2.01317 -0.074072 1.06491
v -0.248202 0.21975 0.595281
v -0.248202 0.269598 0.595281
v -0.167149 0.269473 1.24205
v -0.167149 0.375322 1.24205
v 0.072544 0.084066 -1.14969
v 0 0.048815 -1.14655
v 0 0.10503 -1.29801
v 0.03399 0.130495 -1.32202
v -0.206633 0.357747 -0.492468
v -0.29 0.269598 -0.442227
v -0.29 0.161162 -0.442227
v 0 0.178834 -1.37424
v -0.03399 0.130495 -1.32202
v -0.117479 0.066817 -0.410529
v -0.100668 0.056234 -0.806669
v 0 0.026216 -0.388945
v 0 0.016381 -0.821293
v -0.10035 0.134851 0.583658
v 0 0.077228 0.57577
v 0 0.37221 -1.14328
v 0 0.442681 -0.936151
v 0.135825 0.308696 2.03307
v 1.08759 0.121311 2.20656
v 1.08759 0.146992 2.20656
v 0.135825 0.375322 2.03307
v 0.075744 0.325713 2.03177
v 0.053891 0.378204 2.0232
v 0.037872 0.28741 2.01926
v 0.10035 0.134851 0.583658
v -0.089684 0.191859 -1.31817
v 0 0.251402 -1.3153
v 0.032353 0.378298 2.18038
v 0.034461 0.330556 2.18038
v 0.221054 0.348255 -0.906936
v 0.177933 0.271343 -1.13169
v -0.072544 0.084066 -1.14969
v -0.169582 0.158738 -1.11839
v 0.089684 0.191859 -1.31817
v -0.217749 0.356916 1.33602
v -0.135825 0.375322 2.03307
v 0 0.249107 2.01569
v -0.037872 0.28741 2.01926
v 0.202223 0.235356 -1.13542
v 0.169582 0.158738 -1.11839
v -0.217749 0.269473 1.33602
v -1.18156 0.114654 2.04512
v -1.18156 0.146992 2.04512
v -1.19842 0.118953 2.12704
v -1.19842 0.146992 2.12704
v -1.08759 0.121311 2.20656
v -1.08759 0.146992 2.20656
v -0.135825 0.308696 2.03307
v 1.18156 0.146992 2.04512
v 1.18156 0.114654 2.04512
v 1.19842 0.146992 2.12704
v 1.19842 0.118953 2.12704
v -0.034375 0.415055 2.0184
v 0 0.431767 2.0184
v 0 0.442681 1.18279
v -0.053623 0.442884 1.31783
v 0.935247 0.752805 1.99154
v 0.917816 0.780022 1.99261
v 0.952128 0.765532 2.07258
v 0.937014 0.789131 2.07351
v 0.205853 0.355888 -0.491408
v 0.271888 0.279572 -0.912866
v -0.021658 0.310325 2.18038
v 0.117479 0.066817 -0.410529
v 0.100668 0.056234 -0.806669
v 0.205475 0.125618 -0.883562
v 0.021658 0.310325 2.18038
v 0.848787 0.729272 2.1586
v 0.86263 0.707658 2.15775
v -0.205475 0.125618 -0.883562
v 0.100758 0.392318 1.31493
v 0.053623 0.442884 1.31783
v 0.034375 0.415055 2.0184
v -0.100758 0.392318 1.31493
v -0.935247 0.752805 1.99154
v -0.917816 0.780022 1.99261
v -0.952128 0.765532 2.07258
v -0.937014 0.789131 2.07351
v -0.86263 0.707658 2.15775
v -0.848787 0.729272 2.1586
v 0 0.353283 2.18038
v 0 0.299342 2.18038
v 0 0.408235 2.18038
v -0.022 0.39692 2.18038
v 0.022 0.39692 2.18038
v 0 0.442681 -0.54448
v 0.182069 0.36783 0.6484
v 0 0.442681 0.698326
v -0.182352 0.368555 0.648792
vn 0.7001 0 0.714
vn -0.2571 0 0.9664
vn 0.9922 0 0.1243
vn -0.9508 0.2437 0.1914
vn 0.8805 0 -0.4741
vn -0.7581 0.5507 -0.3494
vn 0.5084 0 -0.8611
vn -0.9594 0 -0.2822
vn -0.7001 0 0.714
vn 0.2571 0 0.9664
vn -0.9922 0 0.1243
vn 0.4063 -0.856 -0.3197
vn -0.7677 0.6409 -0
vn 0.1785 -0.9832 0.0377
vn -0.0468 -0.7176 -0.6948
vn -0.3464 -0.9379 0.0161
vn -0.4134 -0.9086 0.0588
vn 0.9594 0 -0.2822
vn -0.436 0.8336 -0.3391
vn -0.1667 0.9855 0.0312
vn -0.1785 -0.9832 0.0377
vn 0.1667 0.9855 0.0312
vn -0.1702 0.005 0.9854
vn 0.5513 -0.8257 0.12
vn -0.3664 0.5866 -0.7223
vn 0.9508 0.2437 0.1914
vn 0.4421 0.8345 -0.3289
vn -0.4063 -0.856 -0.3197
vn -0.1865 -0.9816 0.0413
vn -0.4555 0.726 -0.5152
vn -0.6647 0.5227 -0.5338
vn -0.8099 -0.433 -0.3957
vn 0.4523 0.7265 -0.5173
vn -0.5084 0 -0.8611
vn -0.1539 0.9881 0.0061
vn -0.5611 -0.8211 0.1048
vn 0.8099 -0.433 -0.3957
vn -0.5926 0 -0.8055
vn -0.9795 0 -0.2017
vn -0.5829 0 0.8125
vn 0.1702 0.005 0.9854
vn 0.1539 0.9881 0.0061
vn 0.5926 0 -0.8055
vn -0.5513 -0.8257 0.12
vn -0.2107 0.9773 0.0225
vn 0.1804 -0.9835 0.0155
vn 0.9795 0 -0.2017
vn -0.1804 -0.9835 0.0155
vn 0.5829 0 0.8125
vn -0.1445 0.9891 0.0268
vn 0.8104 0.529 -0.2519
vn -0.8805 0 -0.4741
vn 0.7542 0.6567 -0.0007
vn -0.7209 -0.6655 0.1935
vn 0.5044 -0.8634 -0.0135
vn 0.5229 -0.4283 -0.7369
vn 0.3664 0.5866 -0.7223
vn 0.8865 -0.4199 -0.1944
vn 0.5522 -0.8205 -0.1477
vn 0.673 0.5098 -0.5358
vn 0.7209 -0.6655 0.1935
vn 0.5611 -0.8211 0.1048
vn 0.1865 -0.9816 0.0413
vn 0.5396 0.3148 0.7809
vn -0.9617 -0.2547 -0.1011
vn -0.8865 -0.4199 -0.1944
vn 0.9617 -0.2547 -0.1011
vn -0.5522 -0.8205 -0.1477
vn 0.2107 0.9773 0.0225
vn 0.4545 0.4175 -0.7868
vn -0.1578 -0.0235 0.9872
vn 0.393 -0.9195 -0.0087
vn -0.3824 0.9229 0.0449
vn -0.4545 0.4175 -0.7868
vn -0.8104 0.529 -0.2519
vn -0.5396 0.3148 0.7809
vn 0.1578 -0.0235 0.9872
vn -0.393 -0.9195 -0.0087
vn 0.3824 0.9229 0.0449
vn 0.2868 0.9572 0.0381
vn 0.748 0.5685 -0.3425
vn 0.4902 0.8706 -0.0419
vn -0 0 1
vn 0.1445 0.9891 0.0268
vn -0.4413 0.8877 0.131
vn 0.4413 0.8877 0.131
vn 0.8698 0.4787 0.1195
vn -0.8698 0.4787 0.1195
vn -0.6174 -0.7604 0.2015
vn 0.6174 -0.7604 0.2015
vn -0.2868 0.9572 0.0381
vn -0.4902 0.8706 -0.0419
vn 0.6663 -0.657 -0.3526
vn 0.4014 -0.9105 -0.099
vn 0.3464 -0.9379 0.0161
vn 0.4134 -0.9086 0.0588
vn 0.4904 -0.8688 0.0684
vn 0.0468 -0.7176 -0.6948
vn -0.6663 -0.657 -0.3526
vn -0.4014 -0.9105 -0.099
vn -0.5044 -0.8634 -0.0135
vn -0.4904 -0.8688 0.0684
vn -0.5229 -0.4283 -0.7369
vn -0.3812 0.9245 -0.0006
vn 0.3772 0.9261 -0.0012
vn -0.3785 0.9256 -0.0003
vn 0.391 0.9204 -0.0013
vn 0.7754 0.6311 0.0199
vn -0.7818 0.6231 0.0206
vn 0.3846 0.9231 -0.0008
vn -0.3753 0.9269 -0.0005
vn -0.8362 0.5482 0.0152
vn 0.8329 0.5532 0.014
vt 0.017791 0.642754
vt 0.025352 0.642523
vt 0.047941 0.667725
vt 0.046367 0.670594
vt 0.27539 0.715165
vt 0.268745 0.721197
vt 0.312286 0.852378
vt 0.300013 0.847505
vt 0.653027 0.820877
vt 0.611444 0.873542
vt 0.651441 0.793375
vt 0.586053 0.800995
vt 0.303615 0.865494
vt 0.294067 0.858563
vt 0.352582 0.379559
vt 0.357254 0.37771
vt 0.36624 0.411431
vt 0.356167 0.413741
vt 0.26116 0.507619
vt 0.274972 0.51798
vt 0.029306 0.631968
vt 0.023179 0.626524
vt 0.641285 0.619614
vt 0.647034 0.635716
vt 0.639471 0.635654
vt 0.635283 0.625192
vt 0.619092 0.664184
vt 0.617454 0.661351
vt 0.397927 0.719748
vt 0.39115 0.713866
vt 0.372618 0.840706
vt 0.353424 0.852532
vt 0.667417 0.547459
vt 0.678437 0.546034
vt 0.679004 0.57847
vt 0.674591 0.58258
vt 0.367955 0.510554
vt 0.387136 0.516723
vt 0.720898 0.395352
vt 0.713383 0.24923
vt 0.951163 0.233739
vt 0.982524 0.284448
vt 0.987025 0.268538
vt 0.679253 0.592725
vt 0.683558 0.582424
vt 0.693186 0.391761
vt 0.692447 0.49018
vt 0.675694 0.389209
vt 0.677496 0.492242
vt 0.689511 0.252244
vt 0.673334 0.254275
vt 0.329523 0.382001
vt 0.329834 0.412633
vt 0.394956 0.243467
vt 0.633133 0.250633
vt 0.630732 0.396929
vt 0.360333 0.279498
vt 0.365389 0.295242
vt 0.311988 0.97749
vt 0.202445 0.979862
vt 0.203665 0.976693
vt 0.311542 0.969541
vt 0.319202 0.975222
vt 0.321789 0.968628
vt 0.654449 0.029824
vt 0.661916 0.032083
vt 0.657096 0.252811
vt 0.643425 0.141731
vt 0.329012 0.336944
vt 0.341206 0.343518
vt 0.329139 0.34816
vt 0.712214 0.822755
vt 0.715589 0.791928
vt 0.763375 0.868461
vt 0.783976 0.794513
vt 0.303459 0.414571
vt 0.306523 0.380107
vt 0.689499 0.547073
vt 0.645637 0.029909
vt 0.636014 0.128622
vt 0.366999 0.373738
vt 0.316964 0.343791
vt 0.400713 0.506056
vt 0.343698 0.968758
vt 0.36207 0.865665
vt 0.353943 0.969691
vt 0.669465 0.033063
vt 0.676975 0.03182
vt 0.301704 0.37831
vt 0.291871 0.374567
vt 0.371631 0.858754
vt 0.473415 0.958992
vt 0.470083 0.96092
vt 0.475522 0.96967
vt 0.471873 0.968875
vt 0.463011 0.980224
vt 0.461798 0.977053
vt 0.35348 0.977638
vt 0.346271 0.975356
vt 0.19541 0.960543
vt 0.192083 0.958608
vt 0.699289 0.140754
vt 0.684359 0.029301
vt 0.706237 0.127394
vt 0.693169 0.029077
vt 0.827363 0.015578
vt 0.840975 0.038166
vt 0.843175 0.026556
vt 0.193605 0.968495
vt 0.189955 0.969283
vt 0.511052 0.02111
vt 0.495633 0.032634
vt 0.498238 0.04416
vt 0.184104 0.167959
vt 0.177024 0.174729
vt 0.02676 0.022119
vt 0.060837 0.037128
vt 0.023252 0.255572
vt 0.030397 0.254089
vt 0.03274 0.274041
vt 0.037247 0.268679
vt 0.293891 0.511547
vt 0.293534 0.412202
vt 0.618253 0.732995
vt 0.662866 0.777336
vt 0.658301 0.392371
vt 0.662481 0.490705
vt 0.645383 0.50223
vt 0.664035 0.586943
vt 0.274601 0.409151
vt 0.650339 0.545494
vt 0.747551 0.728852
vt 0.70756 0.776396
vt 0.061896 0.269703
vt 0.06371 0.275958
vt 0.3851 0.407939
vt 0.709938 0.501101
vt 0.706498 0.544512
vt 0.024094 0.057223
vt 0.041238 0.056424
vt 0.17682 0.188345
vt 0.170146 0.181704
vt 0.395823 0.19435
vt 0.256252 0.194019
vt 0.362161 0.054278
vt 0.395844 0.068963
vt 0.377798 0.049122
vt 0.061901 0.019998
vt 0.260238 0.022227
vt 0.258645 0.029348
vt 0.278558 0.032
vt 0.273127 0.036423
vt 0.279995 0.062995
vt 0.27377 0.061085
vt 0.190641 0.174736
vt 0.053867 0.402399
vt 0.188015 0.301229
vt 0.188015 0.434974
vt 0.048891 0.417371
vt 0.067863 0.43471
vt 0.321655 0.865116
vt 0.334515 0.827295
vt 0.332569 0.846868
vt 0.900888 0.823192
vt 0.901298 0.906597
vt 0.867728 0.889778
vt 0.688808 0.911095
vt 0.647523 0.904233
vt 0.684375 0.847476
vt 0.668014 0.840218
vt 0.729521 0.901423
vt 0.701376 0.837555
vt 0.681936 0.700375
vt 0.684231 0.768547
vt 0.344031 0.865252
vt 0.336904 0.846815
vt 0.69426 0.586415
vt 0.330853 0.504985
vt 0.296951 0.724461
vt 0.333432 0.73249
vt 0.369718 0.723705
vt 0.934702 0.88945
vt 0.934575 0.755554
vt 0.900471 0.738225
vt 0.866541 0.755888
vt 0.847777 0.858594
vt 0.954345 0.858071
vt 0.950723 0.784268
vt 0.850675 0.78476
usemtl Plane
f 1/1/1 2/2/1 3/3/1
f 1/1/1 3/3/1 4/4/1
f 4/4/2 3/3/2 5/5/2
f 4/4/2 5/5/2 6/6/2
f 6/6/3 5/5/3 7/7/3
f 6/6/3 7/7/3 8/8/3
f 9/9/4 10/10/4 11/11/4
f 10/10/4 12/12/4 11/11/4
f 8/8/5 7/7/5 13/13/5
f 8/8/5 13/13/5 14/14/5
f 15/15/6 16/16/6 17/17/6
f 15/15/6 17/17/6 18/18/6
f 19/19/7 20/20/7 21/21/7
f 19/19/7 21/21/7 22/22/7
f 23/23/8 24/24/8 25/25/8
f 23/23/8 25/25/8 26/26/8
f 24/24/9 27/27/9 28/28/9
f 24/24/9 28/28/9 25/25/9
f 27/27/10 29/29/10 28/28/10
f 29/29/10 30/30/10 28/28/10
f 29/29/11 31/31/11 30/30/11
f 31/31/11 32/32/11 30/30/11
f 33/33/12 34/34/12 35/35/12
f 33/33/12 35/35/12 36/36/12
f 37/37/13 18/18/13 38/38/13
f 18/18/13 17/17/13 38/38/13
f 39/39/14 29/40/14 27/41/14
f 23/42/14 39/39/14 27/41/14
f 24/43/14 23/42/14 27/41/14
f 40/44/15 35/35/15 41/45/15
f 42/46/16 43/47/16 44/48/16
f 43/47/16 45/49/16 44/48/16
f 46/50/17 42/46/17 47/51/17
f 42/46/17 44/48/17 47/51/17
f 22/22/18 21/21/18 2/2/18
f 22/22/18 2/2/18 1/1/18
f 48/52/19 15/15/19 18/18/19
f 48/52/19 18/18/19 49/53/19
f 30/30/20 38/38/20 26/26/20
f 28/28/20 30/30/20 26/26/20
f 25/25/20 28/28/20 26/26/20
f 4/54/21 6/55/21 19/56/21
f 1/57/21 4/54/21 19/56/21
f 22/58/21 1/57/21 19/56/21
f 21/21/22 20/20/22 5/5/22
f 2/2/22 21/21/22 5/5/22
f 3/3/22 2/2/22 5/5/22
f 50/59/23 51/60/23 52/61/23
f 50/59/23 52/61/23 53/62/23
f 54/63/23 50/59/23 53/62/23
f 55/64/23 54/63/23 53/62/23
f 54/65/24 56/66/24 57/67/24
f 8/68/24 54/65/24 57/67/24
f 6/55/24 8/68/24 57/67/24
f 40/69/25 58/70/25 59/71/25
f 60/72/26 61/73/26 55/74/26
f 61/73/26 54/75/26 55/74/26
f 48/52/27 49/53/27 62/76/27
f 48/52/27 62/76/27 63/77/27
f 64/78/28 41/45/28 35/35/28
f 64/78/28 35/35/28 34/34/28
f 50/79/29 54/65/29 14/80/29
f 54/65/29 8/68/29 14/80/29
f 59/71/30 58/70/30 15/15/30
f 59/71/30 15/15/30 48/52/30
f 58/70/31 16/16/31 15/15/31
f 58/70/32 65/81/32 16/16/32
f 59/71/33 48/52/33 63/77/33
f 59/71/33 63/77/33 66/82/33
f 23/23/34 26/26/34 38/38/34
f 23/23/34 38/38/34 39/83/34
f 10/84/35 32/32/35 67/85/35
f 10/84/35 67/85/35 68/86/35
f 69/87/36 70/88/36 46/50/36
f 69/87/36 46/50/36 47/51/36
f 66/82/37 71/89/37 72/90/37
f 73/91/38 74/92/38 67/85/38
f 74/92/38 75/93/38 67/85/38
f 74/92/39 76/94/39 77/95/39
f 74/92/39 77/95/39 75/93/39
f 76/94/40 78/96/40 79/97/40
f 76/94/40 79/97/40 77/95/40
f 79/97/41 78/96/41 80/98/41
f 68/86/41 79/97/41 80/98/41
f 10/84/41 68/86/41 80/98/41
f 12/99/41 10/84/41 80/98/41
f 55/64/42 53/62/42 13/13/42
f 55/64/42 13/13/42 7/7/42
f 14/14/43 13/13/43 81/100/43
f 14/14/43 81/100/43 82/101/43
f 31/102/44 29/40/44 46/50/44
f 12/103/44 31/102/44 46/50/44
f 70/88/44 12/103/44 46/50/44
f 68/86/45 67/85/45 75/93/45
f 79/97/45 68/86/45 75/93/45
f 77/95/45 79/97/45 75/93/45
f 73/104/46 80/105/46 78/106/46
f 74/107/46 73/104/46 78/106/46
f 76/108/46 74/107/46 78/106/46
f 82/101/47 81/100/47 83/109/47
f 82/101/47 83/109/47 84/110/47
f 51/111/48 50/79/48 14/80/48
f 84/112/48 51/111/48 14/80/48
f 82/113/48 84/112/48 14/80/48
f 84/110/49 83/109/49 52/61/49
f 84/110/49 52/61/49 51/60/49
f 85/114/50 86/115/50 87/116/50
f 85/114/50 87/116/50 88/117/50
f 89/118/51 90/119/51 91/120/51
f 90/119/51 92/121/51 91/120/51
f 31/31/52 73/91/52 67/85/52
f 31/31/52 67/85/52 32/32/52
f 93/122/53 20/20/53 62/76/53
f 20/20/53 94/123/53 62/76/53
f 70/124/54 95/125/54 11/11/54
f 70/124/54 11/11/54 12/12/54
f 96/126/55 97/127/55 19/56/55
f 97/127/55 98/128/55 19/56/55
f 40/44/56 66/129/56 36/36/56
f 40/69/57 59/71/57 66/82/57
f 71/89/58 94/123/58 72/90/58
f 94/123/58 98/130/58 72/90/58
f 97/127/59 33/33/59 72/131/59
f 97/127/59 72/131/59 98/128/59
f 66/82/60 63/77/60 71/89/60
f 56/132/61 54/75/61 61/73/61
f 56/132/61 61/73/61 99/133/61
f 69/87/62 47/51/62 57/67/62
f 69/87/62 57/67/62 56/66/62
f 12/103/63 80/105/63 73/104/63
f 12/103/63 73/104/63 31/102/63
f 91/120/64 92/121/64 100/134/64
f 91/120/64 100/134/64 101/135/64
f 102/136/65 39/83/65 17/17/65
f 39/83/65 38/38/65 17/17/65
f 16/16/66 65/81/66 17/17/66
f 65/81/66 102/136/66 17/17/66
f 20/20/67 19/19/67 94/123/67
f 19/19/67 98/130/67 94/123/67
f 43/47/68 102/137/68 65/138/68
f 43/47/68 65/138/68 64/78/68
f 83/109/69 81/100/69 13/13/69
f 52/61/69 83/109/69 13/13/69
f 53/62/69 52/61/69 13/13/69
f 103/139/70 104/140/70 89/118/70
f 104/140/70 90/119/70 89/118/70
f 101/135/71 100/134/71 55/141/71
f 100/134/71 105/142/71 55/141/71
f 55/143/72 103/144/72 89/145/72
f 101/146/72 55/143/72 89/145/72
f 91/147/72 101/146/72 89/145/72
f 92/121/73 90/119/73 104/140/73
f 100/134/73 92/121/73 104/140/73
f 105/142/73 100/134/73 104/140/73
f 106/148/74 107/149/74 88/117/74
f 107/149/74 108/150/74 88/117/74
f 107/149/75 109/151/75 108/150/75
f 109/151/75 110/152/75 108/150/75
f 109/151/76 111/153/76 112/154/76
f 109/151/76 112/154/76 110/152/76
f 111/153/77 10/155/77 112/154/77
f 10/155/77 85/114/77 112/154/77
f 107/156/78 106/157/78 10/158/78
f 109/159/78 107/156/78 10/158/78
f 111/160/78 109/159/78 10/158/78
f 88/117/79 108/150/79 110/152/79
f 85/114/79 88/117/79 110/152/79
f 112/154/79 85/114/79 110/152/79
f 55/64/80 7/7/80 103/161/80
f 63/77/81 62/76/81 94/123/81
f 63/77/81 94/123/81 71/89/81
f 7/7/82 87/162/82 103/161/82
f 87/162/82 104/163/82 103/161/82
f 113/164/83 114/165/83 99/166/83
f 104/140/84 87/116/84 105/142/84
f 87/116/84 86/115/84 105/142/84
f 86/167/85 85/168/85 115/169/85
f 85/168/85 116/170/85 115/169/85
f 105/171/86 86/167/86 115/169/86
f 105/171/86 115/169/86 117/172/86
f 55/74/87 105/171/87 60/72/87
f 105/171/87 117/172/87 60/72/87
f 85/168/88 10/10/88 9/9/88
f 85/168/88 9/9/88 116/170/88
f 69/173/89 114/174/89 95/125/89
f 69/173/89 95/125/89 70/124/89
f 69/173/90 56/132/90 99/133/90
f 69/173/90 99/133/90 114/174/90
f 10/84/91 106/175/91 32/32/91
f 106/175/92 88/176/92 87/162/92
f 106/175/92 87/162/92 32/32/92
f 72/131/93 33/33/93 36/36/93
f 72/131/93 36/36/93 66/129/93
f 45/49/94 34/34/94 97/127/94
f 34/34/94 33/33/94 97/127/94
f 44/48/95 45/49/95 97/127/95
f 44/48/95 97/127/95 96/126/95
f 47/51/96 44/48/96 96/126/96
f 47/51/96 96/126/96 57/67/96
f 6/55/97 57/67/97 19/56/97
f 57/67/97 96/126/97 19/56/97
f 35/35/98 40/44/98 36/36/98
f 65/138/99 58/177/99 41/45/99
f 65/138/99 41/45/99 64/78/99
f 45/49/100 43/47/100 34/34/100
f 43/47/100 64/78/100 34/34/100
f 39/39/101 102/137/101 43/47/101
f 39/39/101 43/47/101 42/46/101
f 46/50/102 29/40/102 39/39/102
f 46/50/102 39/39/102 42/46/102
f 58/177/103 40/44/103 41/45/103
f 118/178/104 49/53/104 18/18/104
f 118/178/104 18/18/104 37/37/104
f 119/179/105 120/180/105 87/162/105
f 119/179/105 87/162/105 7/7/105
f 120/180/106 118/178/106 121/181/106
f 118/178/106 37/37/106 121/181/106
f 62/76/107 49/53/107 118/178/107
f 62/76/107 118/178/107 93/122/107
f 5/5/108 20/20/108 93/122/108
f 5/5/108 93/122/108 119/179/108
f 121/181/109 37/37/109 30/30/109
f 37/37/109 38/38/109 30/30/109
f 93/122/110 118/178/110 119/179/110
f 118/178/110 120/180/110 119/179/110
f 87/162/111 120/180/111 121/181/111
f 87/162/111 121/181/111 32/32/111
f 32/32/112 121/181/112 30/30/112
f 7/7/113 5/5/113 119/179/113
f 95/182/83 114/165/83 113/164/83
f 116/183/83 113/164/83 115/184/83
f 115/184/83 113/164/83 117/185/83
f 113/164/83 99/166/83 61/186/83
f 11/187/83 95/182/83 113/164/83
f 9/188/83 11/187/83 113/164/83
f 117/185/83 113/164/83 60/189/83
f 116/183/83 9/188/83 113/164/83
f 60/189/83 113/164/83 61/186/83
s off
