# Apple ModelIO OBJ File: bg
mtllib bg.mtl
g BG_BG
v -1e-06 42.7975 -13.9058
v -4e-06 45 5e-06
v 8.17361 42.7975 -11.25
v -4e-06 -36.4058 -26.4503
v 0 -26.4503 -36.4058
v 15.5471 -36.4058 -21.3988
v 21.3988 -26.4503 -29.4529
v -2e-06 -2e-06 -45
v -1.1e-05 13.9058 -42.7975
v 25.1558 13.9058 -34.6239
v 26.4503 -2e-06 -36.4058
v -4e-06 36.4058 -26.4503
v 15.5471 36.4058 -21.3988
v 0 -42.7975 -13.9058
v 8.17361 -42.7975 -11.25
v -1.1e-05 -13.9058 -42.7975
v 25.1558 -13.9058 -34.6239
v -5e-06 26.4503 -36.4058
v 21.3988 26.4503 -29.4529
v 0 -45 4e-06
v 13.2252 42.7975 -4.29711
v 34.6239 -26.4503 -11.25
v 25.1558 -36.4058 -8.1736
v 40.7029 13.9058 -13.2252
v 42.7976 -2e-06 -13.9058
v 25.1558 36.4058 -8.1736
v 13.2252 -42.7975 -4.29712
v 40.7029 -13.9058 -13.2252
v 34.6239 26.4503 -11.25
v 34.6239 26.4503 11.25
v 40.7029 13.9058 13.2252
v 13.2252 42.7975 4.29712
v 34.6239 -26.4503 11.25
v 25.1558 -36.4058 8.1736
v 42.7976 -2e-06 13.9058
v 25.1558 36.4058 8.17361
v 13.2252 -42.7975 4.29712
v 40.7029 -13.9058 13.2252
v 8.17361 -42.7975 11.25
v 21.3988 -26.4503 29.4529
v 25.1558 -13.9058 34.6239
v 25.1558 13.9058 34.6239
v 21.3988 26.4503 29.4529
v 8.17361 42.7975 11.25
v 15.5471 -36.4058 21.3988
v 26.4503 -2e-06 36.4058
v 15.5471 36.4058 21.3988
v 6e-06 -13.9058 42.7976
v 0 -2e-06 45
v 4e-06 26.4503 36.4058
v 1e-06 36.4058 26.4503
v 1e-06 -42.7975 13.9058
v 4e-06 -26.4503 36.4058
v 6e-06 13.9058 42.7976
v 0 42.7975 13.9058
v 2e-06 -36.4058 26.4503
v -8.17361 42.7975 11.25
v -15.5471 36.4058 21.3988
v -8.17361 -42.7975 11.25
v -15.5471 -36.4058 21.3988
v -25.1558 -13.9058 34.624
v -26.4503 -2e-06 36.4058
v -21.3988 26.4503 29.4529
v -21.3988 -26.4503 29.4529
v -25.1558 13.9058 34.624
v -40.7029 13.9058 13.2252
v -42.7976 -2e-06 13.9058
v -13.2252 42.7975 4.29712
v -25.1558 36.4058 8.17361
v -13.2252 -42.7975 4.29712
v -25.1558 -36.4058 8.17361
v -40.7029 -13.9058 13.2252
v -34.6239 26.4503 11.25
v -34.6239 -26.4503 11.25
v -13.2252 42.7975 -4.29711
v -25.1558 -36.4058 -8.17359
v -34.6239 -26.4503 -11.25
v -40.7029 13.9058 -13.2252
v -42.7976 -2e-06 -13.9058
v -25.1558 36.4058 -8.1736
v -13.2252 -42.7975 -4.29711
v -40.7029 -13.9058 -13.2252
v -34.6239 26.4503 -11.25
v -25.1558 -13.9058 -34.6239
v -21.3988 -26.4503 -29.4529
v -25.1558 13.9058 -34.6239
v -21.3988 26.4503 -29.4529
v -8.17361 42.7975 -11.25
v -15.5471 -36.4058 -21.3988
v -26.4503 -2e-06 -36.4058
v -15.5471 36.4058 -21.3988
v -8.17361 -42.7975 -11.25
vn 0 0.9416 -0.3367
vn 0 1 0
vn 0.1979 0.9416 -0.2724
vn 0 -0.7944 -0.6074
vn 0 -0.5735 -0.8192
vn 0.357 -0.7944 -0.4914
vn 0.4815 -0.5735 -0.6627
vn 0 0 -1
vn 0 0.3003 -0.9538
vn 0.5606 0.3003 -0.7717
vn 0.5878 0 -0.809
vn 0 0.7944 -0.6074
vn 0.357 0.7944 -0.4914
vn 0 -0.9416 -0.3367
vn 0.1979 -0.9416 -0.2724
vn 0 -0.3003 -0.9538
vn 0.5606 -0.3003 -0.7717
vn 0 0.5735 -0.8192
vn 0.4815 0.5735 -0.6627
vn 0 -1 0
vn 0.3202 0.9416 -0.104
vn 0.7791 -0.5735 -0.2531
vn 0.5777 -0.7944 -0.1877
vn 0.9071 0.3003 -0.2947
vn 0.951 0 -0.309
vn 0.5777 0.7944 -0.1877
vn 0.3202 -0.9416 -0.104
vn 0.9071 -0.3003 -0.2947
vn 0.7791 0.5735 -0.2531
vn 0.7791 0.5735 0.2531
vn 0.9071 0.3003 0.2947
vn 0.3202 0.9416 0.104
vn 0.7791 -0.5735 0.2531
vn 0.5777 -0.7944 0.1877
vn 0.951 0 0.309
vn 0.5777 0.7944 0.1877
vn 0.3202 -0.9416 0.104
vn 0.9071 -0.3003 0.2947
vn 0.1979 -0.9416 0.2724
vn 0.4815 -0.5735 0.6627
vn 0.5606 -0.3003 0.7717
vn 0.5606 0.3003 0.7717
vn 0.4815 0.5735 0.6627
vn 0.1979 0.9416 0.2724
vn 0.357 -0.7944 0.4914
vn 0.5878 0 0.809
vn 0.357 0.7944 0.4914
vn 0 -0.3003 0.9538
vn 0 0 1
vn 0 0.5735 0.8192
vn 0 0.7944 0.6074
vn 0 -0.9416 0.3367
vn 0 -0.5735 0.8192
vn 0 0.3003 0.9538
vn 0 0.9416 0.3367
vn 0 -0.7944 0.6074
vn -0.1979 0.9416 0.2724
vn -0.357 0.7944 0.4914
vn -0.1979 -0.9416 0.2724
vn -0.357 -0.7944 0.4914
vn -0.5606 -0.3003 0.7717
vn -0.5878 0 0.809
vn -0.4815 0.5735 0.6627
vn -0.4815 -0.5735 0.6627
vn -0.5606 0.3003 0.7717
vn -0.9071 0.3003 0.2947
vn -0.951 0 0.309
vn -0.3202 0.9416 0.104
vn -0.5777 0.7944 0.1877
vn -0.3202 -0.9416 0.104
vn -0.5777 -0.7944 0.1877
vn -0.9071 -0.3003 0.2947
vn -0.7791 0.5735 0.2531
vn -0.7791 -0.5735 0.2531
vn -0.3202 0.9416 -0.104
vn -0.5777 -0.7944 -0.1877
vn -0.7791 -0.5735 -0.2531
vn -0.9071 0.3003 -0.2947
vn -0.951 0 -0.309
vn -0.5777 0.7944 -0.1877
vn -0.3202 -0.9416 -0.104
vn -0.9071 -0.3003 -0.2947
vn -0.7791 0.5735 -0.2531
vn -0.5606 -0.3003 -0.7717
vn -0.4815 -0.5735 -0.6627
vn -0.5606 0.3003 -0.7717
vn -0.4815 0.5735 -0.6627
vn -0.1979 0.9416 -0.2724
vn -0.357 -0.7944 -0.4914
vn -0.5878 0 -0.809
vn -0.357 0.7944 -0.4914
vn -0.1979 -0.9416 -0.2724
vt 0.7 0.9
vt 0.65 1
vt 0.6 0.9
vt 0.7 0.2
vt 0.7 0.3
vt 0.6 0.2
vt 0.6 0.3
vt 0.7 0.5
vt 0.7 0.6
vt 0.6 0.6
vt 0.6 0.5
vt 0.7 0.8
vt 0.6 0.8
vt 0.7 0.1
vt 0.6 0.1
vt 0.7 0.4
vt 0.6 0.4
vt 0.7 0.7
vt 0.6 0.7
vt 0.65 0
vt 0.55 1
vt 0.5 0.9
vt 0.5 0.3
vt 0.5 0.2
vt 0.5 0.6
vt 0.5 0.5
vt 0.5 0.8
vt 0.5 0.1
vt 0.5 0.4
vt 0.5 0.7
vt 0.55 0
vt 0.4 0.7
vt 0.4 0.6
vt 0.45 1
vt 0.4 0.9
vt 0.4 0.3
vt 0.4 0.2
vt 0.4 0.5
vt 0.4 0.8
vt 0.4 0.1
vt 0.4 0.4
vt 0.45 0
vt 0.35 0
vt 0.3 0.1
vt 0.3 0.3
vt 0.3 0.4
vt 0.3 0.6
vt 0.3 0.7
vt 0.35 1
vt 0.3 0.9
vt 0.3 0.2
vt 0.3 0.5
vt 0.3 0.8
vt 0.2 0.4
vt 0.2 0.5
vt 0.2 0.7
vt 0.2 0.8
vt 0.25 0
vt 0.2 0.1
vt 0.2 0.3
vt 0.2 0.6
vt 0.25 1
vt 0.2 0.9
vt 0.2 0.2
vt 0.1 0.9
vt 0.1 0.8
vt 0.1 0.1
vt 0.1 0.2
vt 0.1 0.4
vt 0.1 0.5
vt 0.1 0.7
vt 0.15 0
vt 0.1 0.3
vt 0.1 0.6
vt 0.15 1
vt 0 0.6
vt 0 0.5
vt 0 0.9
vt 0 0.8
vt 0 0.1
vt 0 0.2
vt 0 0.4
vt 0 0.7
vt 0.05 0
vt 0 0.3
vt 0.05 1
vt 1 0.9
vt 0.95 1
vt 0.9 0.9
vt 1 0.2
vt 1 0.3
vt 0.9 0.2
vt 0.9 0.3
vt 1 0.5
vt 1 0.6
vt 0.9 0.6
vt 0.9 0.5
vt 1 0.8
vt 0.9 0.8
vt 1 0.1
vt 0.9 0.1
vt 1 0.4
vt 0.9 0.4
vt 1 0.7
vt 0.9 0.7
vt 0.95 0
vt 0.8 0.4
vt 0.8 0.3
vt 0.8 0.6
vt 0.8 0.7
vt 0.85 1
vt 0.8 0.9
vt 0.8 0.2
vt 0.8 0.5
vt 0.8 0.8
vt 0.8 0.1
vt 0.85 0
vt 0.75 0
vt 0.75 1
usemtl BG
f 1/1/1 2/2/2 3/3/3
f 4/4/4 5/5/5 6/6/6
f 5/5/5 7/7/7 6/6/6
f 8/8/8 9/9/9 10/10/10
f 8/8/8 10/10/10 11/11/11
f 12/12/12 1/1/1 13/13/13
f 1/1/1 3/3/3 13/13/13
f 14/14/14 4/4/4 6/6/6
f 14/14/14 6/6/6 15/15/15
f 16/16/16 8/8/8 17/17/17
f 8/8/8 11/11/11 17/17/17
f 18/18/18 12/12/12 13/13/13
f 18/18/18 13/13/13 19/19/19
f 20/20/20 14/14/14 15/15/15
f 5/5/5 16/16/16 17/17/17
f 5/5/5 17/17/17 7/7/7
f 9/9/9 18/18/18 10/10/10
f 18/18/18 19/19/19 10/10/10
f 3/3/3 2/21/2 21/22/21
f 6/6/6 7/7/7 22/23/22
f 6/6/6 22/23/22 23/24/23
f 11/11/11 10/10/10 24/25/24
f 11/11/11 24/25/24 25/26/25
f 13/13/13 3/3/3 21/22/21
f 13/13/13 21/22/21 26/27/26
f 15/15/15 6/6/6 23/24/23
f 15/15/15 23/24/23 27/28/27
f 17/17/17 11/11/11 28/29/28
f 11/11/11 25/26/25 28/29/28
f 19/19/19 13/13/13 29/30/29
f 13/13/13 26/27/26 29/30/29
f 20/31/20 15/15/15 27/28/27
f 7/7/7 17/17/17 28/29/28
f 7/7/7 28/29/28 22/23/22
f 10/10/10 19/19/19 29/30/29
f 10/10/10 29/30/29 24/25/24
f 24/25/24 29/30/29 30/32/30
f 24/25/24 30/32/30 31/33/31
f 21/22/21 2/34/2 32/35/32
f 23/24/23 22/23/22 33/36/33
f 23/24/23 33/36/33 34/37/34
f 25/26/25 24/25/24 31/33/31
f 25/26/25 31/33/31 35/38/35
f 26/27/26 21/22/21 32/35/32
f 26/27/26 32/35/32 36/39/36
f 27/28/27 23/24/23 37/40/37
f 23/24/23 34/37/34 37/40/37
f 28/29/28 25/26/25 35/38/35
f 28/29/28 35/38/35 38/41/38
f 29/30/29 26/27/26 30/32/30
f 26/27/26 36/39/36 30/32/30
f 20/42/20 27/28/27 37/40/37
f 22/23/22 28/29/28 38/41/38
f 22/23/22 38/41/38 33/36/33
f 20/43/20 37/40/37 39/44/39
f 33/36/33 38/41/38 40/45/40
f 38/41/38 41/46/41 40/45/40
f 31/33/31 30/32/30 42/47/42
f 30/32/30 43/48/43 42/47/42
f 32/35/32 2/49/2 44/50/44
f 34/37/34 33/36/33 40/45/40
f 34/37/34 40/45/40 45/51/45
f 35/38/35 31/33/31 42/47/42
f 35/38/35 42/47/42 46/52/46
f 36/39/36 32/35/32 47/53/47
f 32/35/32 44/50/44 47/53/47
f 37/40/37 34/37/34 45/51/45
f 37/40/37 45/51/45 39/44/39
f 38/41/38 35/38/35 41/46/41
f 35/38/35 46/52/46 41/46/41
f 30/32/30 36/39/36 43/48/43
f 36/39/36 47/53/47 43/48/43
f 41/46/41 46/52/46 48/54/48
f 46/52/46 49/55/49 48/54/48
f 43/48/43 47/53/47 50/56/50
f 47/53/47 51/57/51 50/56/50
f 20/58/20 39/44/39 52/59/52
f 40/45/40 41/46/41 53/60/53
f 41/46/41 48/54/48 53/60/53
f 42/47/42 43/48/43 50/56/50
f 42/47/42 50/56/50 54/61/54
f 44/50/44 2/62/2 55/63/55
f 45/51/45 40/45/40 53/60/53
f 45/51/45 53/60/53 56/64/56
f 46/52/46 42/47/42 54/61/54
f 46/52/46 54/61/54 49/55/49
f 47/53/47 44/50/44 55/63/55
f 47/53/47 55/63/55 51/57/51
f 39/44/39 45/51/45 52/59/52
f 45/51/45 56/64/56 52/59/52
f 51/57/51 55/63/55 57/65/57
f 51/57/51 57/65/57 58/66/58
f 52/59/52 56/64/56 59/67/59
f 56/64/56 60/68/60 59/67/59
f 48/54/48 49/55/49 61/69/61
f 49/55/49 62/70/62 61/69/61
f 50/56/50 51/57/51 63/71/63
f 51/57/51 58/66/58 63/71/63
f 20/72/20 52/59/52 59/67/59
f 53/60/53 48/54/48 61/69/61
f 53/60/53 61/69/61 64/73/64
f 54/61/54 50/56/50 65/74/65
f 50/56/50 63/71/63 65/74/65
f 55/63/55 2/75/2 57/65/57
f 56/64/56 53/60/53 64/73/64
f 56/64/56 64/73/64 60/68/60
f 49/55/49 54/61/54 65/74/65
f 49/55/49 65/74/65 62/70/62
f 62/70/62 65/74/65 66/76/66
f 62/70/62 66/76/66 67/77/67
f 58/66/58 57/65/57 68/78/68
f 58/66/58 68/78/68 69/79/69
f 59/67/59 60/68/60 70/80/70
f 60/68/60 71/81/71 70/80/70
f 61/69/61 62/70/62 72/82/72
f 62/70/62 67/77/67 72/82/72
f 63/71/63 58/66/58 69/79/69
f 63/71/63 69/79/69 73/83/73
f 20/84/20 59/67/59 70/80/70
f 64/73/64 61/69/61 72/82/72
f 64/73/64 72/82/72 74/85/74
f 65/74/65 63/71/63 66/76/66
f 63/71/63 73/83/73 66/76/66
f 57/65/57 2/86/2 68/78/68
f 60/68/60 64/73/64 71/81/71
f 64/73/64 74/85/74 71/81/71
f 68/87/68 2/88/2 75/89/75
f 71/90/71 74/91/74 76/92/76
f 74/91/74 77/93/77 76/92/76
f 67/94/67 66/95/66 78/96/78
f 67/94/67 78/96/78 79/97/79
f 69/98/69 68/87/68 75/89/75
f 69/98/69 75/89/75 80/99/80
f 70/100/70 71/90/71 76/92/76
f 70/100/70 76/92/76 81/101/81
f 72/102/72 67/94/67 82/103/82
f 67/94/67 79/97/79 82/103/82
f 73/104/73 69/98/69 80/99/80
f 73/104/73 80/99/80 83/105/83
f 20/106/20 70/100/70 81/101/81
f 74/91/74 72/102/72 82/103/82
f 74/91/74 82/103/82 77/93/77
f 66/95/66 73/104/73 78/96/78
f 73/104/73 83/105/83 78/96/78
f 77/93/77 82/103/82 84/107/84
f 77/93/77 84/107/84 85/108/85
f 78/96/78 83/105/83 86/109/86
f 83/105/83 87/110/87 86/109/86
f 75/89/75 2/111/2 88/112/88
f 76/92/76 77/93/77 89/113/89
f 77/93/77 85/108/85 89/113/89
f 79/97/79 78/96/78 86/109/86
f 79/97/79 86/109/86 90/114/90
f 80/99/80 75/89/75 91/115/91
f 75/89/75 88/112/88 91/115/91
f 81/101/81 76/92/76 92/116/92
f 76/92/76 89/113/89 92/116/92
f 82/103/82 79/97/79 90/114/90
f 82/103/82 90/114/90 84/107/84
f 83/105/83 80/99/80 91/115/91
f 83/105/83 91/115/91 87/110/87
f 20/117/20 81/101/81 92/116/92
f 87/110/87 91/115/91 12/12/12
f 87/110/87 12/12/12 18/18/18
f 20/118/20 92/116/92 14/14/14
f 85/108/85 84/107/84 16/16/16
f 85/108/85 16/16/16 5/5/5
f 86/109/86 87/110/87 18/18/18
f 86/109/86 18/18/18 9/9/9
f 88/112/88 2/119/2 1/1/1
f 89/113/89 85/108/85 4/4/4
f 85/108/85 5/5/5 4/4/4
f 90/114/90 86/109/86 9/9/9
f 90/114/90 9/9/9 8/8/8
f 91/115/91 88/112/88 12/12/12
f 88/112/88 1/1/1 12/12/12
f 92/116/92 89/113/89 4/4/4
f 92/116/92 4/4/4 14/14/14
f 84/107/84 90/114/90 16/16/16
f 90/114/90 8/8/8 16/16/16
s off
