# Apple ModelIO OBJ File: starplane
mtllib starplane.mtl
g plane2_plane2
v 0.226101 0.351999 61.8078
v 0.237044 0.325713 61.8121
v 1.24889 0.121311 61.1912
v 1.24889 0.134152 61.1912
v -1.3795 0.130774 61.0509
v -1.37364 0.146943 61.0655
v -1.37459 0.115352 60.1052
v -1.36756 0.130277 60.1052
v -0.237044 0.325713 61.8121
v -1.24889 0.121311 61.1912
v -1.29306 0.114654 60.7563
v -0.328449 0.269473 61.0224
v -1.43613 0.707658 61.2443
v -1.42921 0.718465 61.2448
v -1.52911 0.757381 61.0988
v -1.5315 0.743415 61.1108
v 1.42921 0.718465 61.2448
v 1.42229 0.729272 61.2452
v 0.205434 0.39663 61.8012
v 0.195676 0.415055 61.7988
v 1.42467 0.780022 60.8372
v 0.214924 0.442884 61.0982
v 1.50527 0.777679 61.1119
v 1.52911 0.757381 61.0988
v 1.52554 0.764566 60.1052
v 1.50363 0.773057 60.1052
v -0.205434 0.39663 61.8012
v -1.42229 0.729272 61.2452
v -0.195676 0.415055 61.7988
v -1.42467 0.780022 60.8372
v -0.214924 0.442884 61.0982
v 0 0.353283 61.9607
v 0 0.299342 61.9607
v 0.100929 0.310325 61.9607
v -0.100929 0.310325 61.9607
v -0.101272 0.39692 61.9607
v 0 0.408235 61.9607
v 0.101272 0.39692 61.9607
v 0.113733 0.330556 61.9607
v -0.113733 0.330556 61.9607
v -0.112677 0.354464 61.9607
v 0.111625 0.378298 61.9607
v 0.106448 0.387609 61.9607
v -0.106448 0.387609 61.9607
v -0.111625 0.378298 61.9607
v 0.112677 0.354464 61.9607
v -1.24889 0.146992 61.1912
v -1.29306 0.146992 60.7563
v -0.215192 0.378204 61.8036
v 1.37364 0.146943 61.0655
v 1.3795 0.130774 61.0509
v 1.37459 0.115352 60.1052
v 1.36756 0.130277 60.1052
v 1.43613 0.707658 61.2443
v 0.215192 0.378204 61.8036
v -1.24889 0.134152 61.1912
v -0.226101 0.351999 61.8078
v 1.24889 0.146992 61.1912
v 0.328449 0.269473 61.0224
v 1.29306 0.114654 60.7563
v -1.37364 0.114605 61.0655
v 1.37364 0.114605 61.0655
v -1.43135 0.746919 60.8324
v -1.50244 0.742501 60.1049
v -1.52793 0.750958 60.1052
v 1.5315 0.743415 61.1108
v 1.43135 0.746919 60.8324
v 1.50244 0.742501 60.1049
v 1.52793 0.750958 60.1052
v -1.32917 0.128132 60.1052
v -1.50527 0.777679 61.1119
v -1.47671 0.760823 60.1052
v -1.50363 0.773057 60.1052
v -1.52554 0.764566 60.1052
v 1.47671 0.760823 60.1052
v -1.3264 0.099664 60.1052
v -1.36902 0.099183 60.1052
v 1.36902 0.099183 60.3104
v 1.3264 0.099664 60.1052
v 0.328449 0.322397 61.0224
v 1.2891 0.130823 60.747
v 0.072544 0.084066 59.5269
v 0 0.07541 59.53
v 0 0.10503 59.3785
v 0.03399 0.130495 59.3545
v 0 0.178834 59.2207
v -0.03399 0.130495 59.3545
v -0.170156 0.197047 59.468
v -0.072544 0.084066 59.5269
v -0.100733 0.06958 59.8635
v -0.204251 0.203757 59.7221
v 0.100733 0.06958 59.8635
v 0.204251 0.203757 59.7221
v 0.170747 0.150342 60.4546
v 0.254455 0.249889 60.4525
v -0.170747 0.150342 60.4546
v -0.117143 0.28741 61.7996
v 0.135426 0.405011 60.4599
v 0.212213 0.409001 60.9928
v 0.279899 0.394887 61.0052
v 0.170156 0.197047 59.468
v 0 0.262893 61.7961
v 0 0.133225 60.4509
v -0.254455 0.249889 60.4525
v 1.42113 0.764529 60.8241
v 1.48007 0.74333 60.1052
v 0 0.431767 61.7988
v 0 0.442681 60.9632
v 0 0.066282 59.8692
v 0.089684 0.191859 59.2768
v 0.088966 0.321776 59.4574
v 0.117143 0.28741 61.7996
v 0 0.431774 60.4672
v -0.122622 0.405396 60.4599
v -0.212213 0.409001 60.9928
v -0.089684 0.191859 59.2768
v 0.238491 0.417601 61.0841
v -0.238491 0.417601 61.0841
v -1.42113 0.764529 60.8241
v -0.088966 0.321776 59.4574
v -0.106815 0.384737 59.6984
v -0.279899 0.394887 61.0052
v -0.328449 0.322397 61.0224
v -1.2891 0.130823 60.747
v -0.262059 0.392318 61.0953
v 0.262059 0.392318 61.0953
v 1.29306 0.146992 60.7563
v -1.48007 0.74333 60.1052
v -1.31948 0.115401 60.1052
v 1.31948 0.115401 60.1052
v 1.32917 0.128132 60.1052
v 0.106815 0.384737 59.6984
vn 0.5404 0.2397 0.8066
vn -0.9217 0.3877 -0.0118
vn 0.1646 -0.9858 0.0324
vn -0.6343 0.5113 0.5798
vn 0.3428 0.2564 0.9037
vn -0.2377 0.9692 0.0641
vn 0.5325 0.8464 -0.0003
vn -0.3428 0.2564 0.9037
vn 0.2377 0.9692 0.0641
vn 0 0 1
vn -0.0001 0 1
vn -0.0001 0.0002 1
vn 0.0001 0.0002 1
vn -0.0004 1 0
vn -0.3438 0.257 0.9032
vn 0.9217 0.3877 -0.0118
vn 0.3437 0.257 0.9032
vn -0.536 0.2384 0.8098
vn 0.536 0.2384 0.8098
vn -0.1646 -0.9858 0.0324
vn -0.5404 0.2397 0.8066
vn 0.7055 -0.1999 0.68
vn 0.6897 0.4266 0.5851
vn -0.711 0.1964 0.6753
vn 0.711 0.1964 0.6752
vn -0.7055 -0.1999 0.68
vn -0.0399 -0.9992 -0.0002
vn -0.2302 -0.9685 -0.095
vn 0.0399 -0.9992 -0.0002
vn -0.0378 0.9991 -0.0213
vn -0.0427 -0.999 0.011
vn 0.3588 0.9265 0.1132
vn 0.2302 -0.9685 -0.095
vn 0.0427 -0.999 0.011
vn -0.3588 0.9265 0.1132
vn 0.053 0.9985 -0.0152
vn -0.5325 0.8464 -0.0003
vn -0.053 0.9985 -0.0152
vn 0.0494 -0.9986 0.018
vn -0.0868 -0.996 0.0198
vn -0.6897 0.4266 0.585
vn -0.0001 -0.0002 1
vn 0.0001 -0.0002 1
vn -0.4408 0.1331 0.8877
vn -0.6688 0.2409 0.7033
vn -0.6032 -0.518 0.6064
vn -0.4225 -0.2851 0.8603
vn 0.338 -0.1672 -0.9261
vn -0.8229 -0.062 -0.5647
vn 0.2618 -0.9346 -0.2407
vn -0.3493 -0.9087 -0.2283
vn 0.4431 -0.8825 -0.1574
vn 0 -0.9898 -0.1424
vn 0 -0.9532 -0.3022
vn 0.4329 -0.8378 -0.3327
vn 0 -0.2206 -0.9753
vn -0.4329 -0.8378 -0.3327
vn -0.9403 -0.0988 -0.3255
vn -0.4431 -0.8825 -0.1574
vn -0.4434 -0.8963 0.007
vn -0.9905 -0.088 -0.1051
vn 0.4434 -0.8963 0.007
vn 0.9897 -0.0949 -0.1068
vn 0.502 -0.864 0.0388
vn 0.9938 0.0329 -0.1062
vn -0.2618 -0.9346 -0.2407
vn -0.502 -0.864 0.0388
vn -0.2473 -0.9557 0.1595
vn 0.4408 0.1331 0.8877
vn 0.4225 -0.2851 0.8603
vn 0.6032 -0.518 0.6064
vn 0.6688 0.2409 0.7033
vn 0.4522 0.888 -0.0834
vn 0.398 0.9029 -0.1623
vn 0.516 0.8289 -0.2156
vn 0.9403 -0.0988 -0.3255
vn 0 -0.9898 0.1425
vn 0 -0.9938 0.1112
vn -0.9931 0.0466 -0.1075
vn -0.7246 -0.2981 -0.6213
vn -0.3429 0.9157 -0.2095
vn -0.548 0.545 -0.6345
vn -0.6961 -0.4152 -0.5857
vn -0.2834 0.8625 0.4192
vn 0 0.9959 0.0897
vn 0 0.9989 -0.0472
vn 0.0337 0.9769 -0.2108
vn -0.1988 -0.7062 0.6795
vn 0 -0.999 0.0443
vn 0.7925 -0.1245 -0.5969
vn 0.4285 0.8237 -0.3713
vn 0.2473 -0.9557 0.1595
vn 0.1988 -0.7062 0.6795
vn -0.0031 0.9992 -0.0399
vn -0.4398 0.8941 -0.0844
vn -0.3916 0.9052 -0.1649
vn -0.7925 -0.1245 -0.5969
vn 0.1065 0.7333 -0.6715
vn -0.0337 0.9769 -0.2108
vn -0.1064 0.7333 -0.6715
vn 0.7246 -0.2981 -0.6213
vn 0.3429 0.9157 -0.2095
vn -0.4285 0.8237 -0.3713
vn 0.2834 0.8625 0.4192
vn 0 0.6756 0.7372
vn -0.2874 0.6145 0.7347
vn 0.2874 0.6145 0.7347
vn 0.5734 0.3687 0.7315
vn 0.4341 0.2582 0.8631
vn -0.5734 0.3687 0.7315
vn -0.6811 0.2737 0.6791
vn -0.4937 0.2246 0.8401
vn -0.4341 0.2582 0.8631
vn 0 -0.6609 0.7504
vn -0.473 0.8686 -0.1475
vn -0.5097 0.8325 -0.2172
vn -0.338 -0.1672 -0.9261
vn 0.3315 -0.9149 -0.2305
vn 0.8229 -0.062 -0.5647
vn 0.8678 -0.3635 0.3387
vn 0.824 0.5311 0.1971
vn 0.6735 -0.4065 0.6173
vn 0.5208 0.373 0.7678
vn -0.5804 0.5357 -0.6133
vn 0.0246 -0.9741 -0.2249
vn 0.2134 0.9171 -0.3368
vn 0.6811 0.2737 0.6791
vn 0.4937 0.2246 0.8401
vn 0.5804 0.5357 -0.6133
vn -0.0246 -0.9741 -0.2249
vn -0.8678 -0.3635 0.3387
vn -0.824 0.5311 0.1971
vn -0.6683 0.4506 -0.5918
vn -0.6024 -0.4814 -0.6366
vn -0.2135 0.9171 -0.3368
vn 0.5528 0.6251 0.551
vn 0.6633 0.6175 0.4227
vn 0.5498 0.546 -0.6322
vn 0.6979 -0.4137 -0.5846
vn -0.1966 0.7608 -0.6185
vn 0.1579 -0.7085 -0.6878
vn 0.7954 0.0438 -0.6045
vn 0.4595 -0.6433 -0.6124
vn -0.7755 0.0199 -0.631
vn -0.444 -0.6691 -0.5959
vn 0.1971 0.7593 -0.6201
vn 0.6655 0.4532 -0.5931
vn -0.857 -0.3072 -0.4137
vn -0.3718 0.6437 -0.6688
vn 0.7749 -0.3406 -0.5325
vn 0.4553 0.6564 -0.6016
vn -0.3783 -0.9181 -0.1184
vn 0.5426 -0.8399 0.0049
vn 0.3718 0.6437 -0.6688
vn -0.4553 0.6564 -0.6016
vn -0.1594 -0.7056 -0.6904
vn 0.6007 -0.479 -0.6401
vn 0.9785 0.0264 0.2047
vn 0.6526 -0.6217 0.4332
vn -0.6528 -0.6218 0.4325
vn -0.9785 0.0249 0.2048
vn 0.4769 0.8661 -0.1496
vn -0.6735 -0.4065 0.6173
vt 0.983916 0.351583
vt 0.974197 0.354671
vt 0.944984 0.19509
vt 0.953321 0.191061
vt 0.118804 0.680121
vt 0.12692 0.67448
vt 0.189232 0.754364
vt 0.188961 0.749784
vt 0.97389 0.432783
vt 0.943456 0.592121
vt 0.932403 0.619729
vt 0.823806 0.458697
vt 0.622667 0.095045
vt 0.623043 0.107525
vt 0.582505 0.10368
vt 0.58515 0.091339
vt 0.641697 0.686044
vt 0.642034 0.674412
vt 0.846008 0.650299
vt 0.845925 0.641109
vt 0.598322 0.657732
vt 0.798136 0.549007
vt 0.604503 0.674844
vt 0.601153 0.689829
vt 0.424995 0.685664
vt 0.424995 0.67219
vt 0.8275 0.130892
vt 0.623375 0.119646
vt 0.827719 0.143489
vt 0.581606 0.139679
vt 0.778817 0.240403
vt 0.291804 0.880026
vt 0.288592 0.816746
vt 0.349389 0.821725
vt 0.228147 0.82496
vt 0.232907 0.925391
vt 0.293915 0.930565
vt 0.35456 0.922145
vt 0.357711 0.841053
vt 0.221089 0.844698
vt 0.222778 0.869188
vt 0.358133 0.879913
vt 0.355466 0.901142
vt 0.227399 0.904559
vt 0.224043 0.88349
vt 0.358634 0.865563
vt 0.113052 0.647241
vt 0.137299 0.671607
vt 0.827314 0.117992
vt 0.119646 0.114441
vt 0.11063 0.106716
vt 0.181296 0.012073
vt 0.184631 0.018823
vt 0.640541 0.698547
vt 0.845041 0.663223
vt 0.103824 0.650654
vt 0.018675 0.475027
vt 0.028498 0.469458
vt 0.025958 0.326019
vt 0.016946 0.319014
vt 0.095914 0.132788
vt 0.106471 0.142484
vt 0.824322 0.327642
vt 0.934123 0.16737
vt 0.98363 0.431656
vt 0.951806 0.591926
vt 0.950674 0.620948
vt 0.942336 0.61867
vt 0.952416 0.161991
vt 0.944069 0.1685
vt 0.330736 0.50828
vt 0.321906 0.496543
vt 0.484454 0.484908
vt 0.480007 0.473065
vt 0.277436 0.503979
vt 0.32635 0.317577
vt 0.331176 0.303426
vt 0.45807 0.298268
vt 0.457269 0.313767
vt 0.193072 0.747718
vt 0.585845 0.119157
vt 0.302446 0.293665
vt 0.414393 0.140583
vt 0.414393 0.121555
vt 0.414393 0.107593
vt 0.424507 0.65658
vt 0.908702 0.715232
vt 0.916275 0.716195
vt 0.918093 0.070124
vt 0.91016 0.07106
vt 0.13635 0.884587
vt 0.18169 0.881336
vt 0.185581 0.899758
vt 0.138813 0.900671
vt 0.817854 0.318946
vt 0.925555 0.164767
vt 0.56476 0.380883
vt 0.56545 0.392211
vt 0.541238 0.392121
vt 0.53614 0.386153
vt 0.511988 0.392013
vt 0.536094 0.398051
vt 0.550996 0.425419
vt 0.564671 0.403534
vt 0.617974 0.408026
vt 0.593952 0.434642
vt 0.618097 0.376786
vt 0.594285 0.349992
vt 0.71449 0.363235
vt 0.714363 0.343628
vt 0.714258 0.422291
vt 0.970939 0.415674
vt 0.091747 0.885673
vt 0.094643 0.901629
vt 0.047497 0.904021
vt 0.045917 0.885468
vt 0.294813 0.343347
vt 0.292931 0.374211
vt 0.197835 0.366216
vt 0.197556 0.331958
vt 0.551258 0.358897
vt 0.969933 0.393711
vt 0.713879 0.392761
vt 0.713977 0.441896
vt 0.590223 0.645028
vt 0.424507 0.644527
vt 0.081648 0.438591
vt 0.08129 0.406648
vt 0.21339 0.404002
vt 0.145098 0.440882
vt 0.160749 0.935055
vt 0.135759 0.904583
vt 0.618946 0.392409
vt 0.520111 0.375801
vt 0.485782 0.368586
vt 0.49677 0.383532
vt 0.450008 0.373546
vt 0.45472 0.349766
vt 0.074811 0.937282
vt 0.097955 0.905198
vt 0.971112 0.371757
vt 0.292806 0.397502
vt 0.295905 0.41836
vt 0.203571 0.44272
vt 0.519983 0.408284
vt 0.787158 0.536312
vt 0.773498 0.256557
vt 0.579165 0.155848
vt 0.488102 0.399872
vt 0.46003 0.423019
vt 0.452138 0.400116
vt 0.135742 0.364987
vt 0.139576 0.370705
vt 0.078742 0.37478
vt 0.111336 0.798996
vt 0.174587 0.820843
vt 0.112636 0.847966
vt 0.132873 0.850078
vt 0.047427 0.824536
vt 0.092453 0.85075
vt 0.047323 0.846766
vt 0.091483 0.852813
vt 0.177499 0.842918
vt 0.179485 0.863044
vt 0.13528 0.868937
vt 0.133946 0.852122
vt 0.118071 0.955057
vt 0.116547 0.906611
vt 0.142004 0.446132
vt 0.41942 0.437618
vt 0.415413 0.405385
vt 0.302017 0.451322
vt 0.19977 0.464402
vt 0.817272 0.467344
vt 0.207662 0.477904
vt 0.924028 0.620498
vt 0.603019 0.702198
vt 0.770248 0.269508
vt 0.576607 0.171085
vt 0.144394 0.672237
vt 0.205113 0.31807
vt 0.046337 0.86702
vt 0.090868 0.869747
vt 0.139582 0.47701
vt 0.783424 0.524996
vt 0.587184 0.631427
vt 0.138743 0.336287
vt 0.414393 0.095274
vt 0.130257 0.11703
vt 0.499095 0.483818
vt 0.495052 0.487214
vt 0.49428 0.471283
vt 0.902048 0.722209
vt 0.916163 0.724003
vt 0.467202 0.287624
vt 0.480011 0.294566
vt 0.479612 0.310665
vt 0.468836 0.317565
vt 0.195278 0.019831
vt 0.188867 0.020789
vt 0.901553 0.061781
vt 0.921597 0.05622
vt 0.197029 0.74915
vt 0.414393 0.156104
vt 0.424995 0.698006
vt 0.414393 0.170245
vt 0.139332 0.115761
vt 0.424507 0.632026
vt 0.412933 0.372965
vt 0.412645 0.340704
vt 0.191116 0.093737
vt 0.30858 0.091064
vt 0.483717 0.467327
vt 0.338414 0.697283
vt 0.224647 0.726641
usemtl plane2
f 1/1/1 2/2/1 3/3/1
f 1/1/1 3/3/1 4/4/1
f 5/5/2 6/6/2 7/7/2
f 6/6/2 8/8/2 7/7/2
f 9/9/3 10/10/3 11/11/3
f 9/9/3 11/11/3 12/12/3
f 13/13/4 14/14/4 15/15/4
f 13/13/4 15/15/4 16/16/4
f 17/17/5 18/18/5 19/19/5
f 18/18/5 20/20/5 19/19/5
f 21/21/6 22/22/6 20/20/6
f 21/21/6 20/20/6 18/18/6
f 23/23/7 24/24/7 25/25/7
f 23/23/7 25/25/7 26/26/7
f 14/14/8 27/27/8 28/28/8
f 27/27/8 29/29/8 28/28/8
f 30/30/9 28/28/9 29/29/9
f 30/30/9 29/29/9 31/31/9
f 32/32/10 33/33/10 34/34/10
f 35/35/11 33/33/11 32/32/11
f 36/36/10 32/32/10 37/37/10
f 37/37/10 32/32/10 38/38/10
f 32/32/10 34/34/10 39/39/10
f 40/40/10 35/35/10 32/32/10
f 41/41/12 40/40/12 32/32/12
f 32/32/10 42/42/10 43/43/10
f 44/44/10 45/45/10 32/32/10
f 32/32/13 39/39/13 46/46/13
f 47/47/14 48/48/14 6/6/14
f 13/13/15 49/49/15 14/14/15
f 49/49/15 27/27/15 14/14/15
f 50/50/16 51/51/16 52/52/16
f 50/50/16 52/52/16 53/53/16
f 54/54/17 17/17/17 55/55/17
f 17/17/17 19/19/17 55/55/17
f 56/56/18 57/57/18 49/58/18
f 56/56/18 49/58/18 47/47/18
f 55/59/19 1/60/19 4/61/19
f 55/59/19 4/61/19 58/62/19
f 59/63/20 60/64/20 2/2/20
f 60/64/20 3/3/20 2/2/20
f 10/10/21 9/9/21 57/65/21
f 10/10/21 57/65/21 56/66/21
f 58/62/22 4/61/22 51/51/22
f 58/62/22 51/51/22 50/50/22
f 23/23/23 18/18/23 24/24/23
f 18/18/23 17/17/23 24/24/23
f 10/10/24 56/66/24 5/67/24
f 10/10/24 5/67/24 61/68/24
f 4/4/25 3/3/25 51/69/25
f 3/3/25 62/70/25 51/69/25
f 56/56/26 47/47/26 5/5/26
f 47/47/26 6/6/26 5/5/26
f 63/71/27 16/72/27 64/73/27
f 16/72/27 65/74/27 64/73/27
f 63/71/28 13/75/28 16/72/28
f 66/76/29 67/77/29 68/78/29
f 66/76/29 68/78/29 69/79/29
f 6/6/30 48/48/30 70/80/30
f 6/6/30 70/80/30 8/8/30
f 3/3/31 60/64/31 62/70/31
f 28/28/32 30/30/32 71/81/32
f 54/82/33 67/77/33 66/76/33
f 11/11/34 10/10/34 61/68/34
f 21/21/35 18/18/35 23/23/35
f 71/81/36 30/30/36 72/83/36
f 71/81/36 72/83/36 73/84/36
f 15/15/37 71/81/37 74/85/37
f 71/81/37 73/84/37 74/85/37
f 21/21/38 23/23/38 75/86/38
f 23/23/38 26/26/38 75/86/38
f 11/11/39 61/68/39 76/87/39
f 61/68/39 77/88/39 76/87/39
f 62/70/40 60/64/40 78/89/40
f 60/64/40 79/90/40 78/89/40
f 71/81/41 15/15/41 28/28/41
f 15/15/41 14/14/41 28/28/41
f 45/45/42 41/41/42 32/32/42
f 42/42/43 32/32/43 46/46/43
f 38/38/10 32/32/10 43/43/10
f 36/36/10 44/44/10 32/32/10
f 41/91/44 57/92/45 9/93/46
f 41/91/44 9/93/46 40/94/47
f 80/95/48 81/96/49 59/63/50
f 81/96/49 60/64/51 59/63/50
f 82/97/52 83/98/53 84/99/54
f 82/97/52 84/99/54 85/100/55
f 86/101/56 84/99/54 87/102/57
f 88/103/58 89/104/59 90/105/60
f 88/103/58 90/105/60 91/106/61
f 92/107/62 93/108/63 94/109/64
f 93/108/63 95/110/65 94/109/64
f 9/9/46 12/12/66 96/111/67
f 9/9/46 96/111/67 97/112/68
f 46/113/69 39/114/70 2/115/71
f 46/113/69 2/115/71 1/116/72
f 89/104/59 87/102/57 84/99/54
f 89/104/59 84/99/54 83/98/53
f 95/117/65 98/118/73 99/119/74
f 95/117/65 99/119/74 100/120/75
f 101/121/76 93/108/63 92/107/62
f 101/121/76 92/107/62 82/97/52
f 102/122/77 97/112/68 96/111/67
f 102/122/77 96/111/67 103/123/78
f 90/105/60 96/111/67 91/106/61
f 96/111/67 104/124/79 91/106/61
f 105/125/80 21/21/81 75/86/82
f 105/125/80 75/86/82 106/126/83
f 29/127/84 107/128/85 108/129/86
f 29/127/84 108/129/86 31/130/87
f 97/131/68 35/132/88 9/93/46
f 35/132/88 40/94/47 9/93/46
f 109/133/89 92/107/62 94/109/64
f 109/133/89 94/109/64 103/123/78
f 86/101/56 110/134/90 85/100/55
f 110/135/90 86/136/56 111/137/91
f 110/135/90 111/137/91 101/138/76
f 82/97/52 85/100/55 101/121/76
f 85/100/55 110/134/90 101/121/76
f 112/139/92 2/115/71 34/140/93
f 2/115/71 39/114/70 34/140/93
f 102/122/77 103/123/78 94/109/64
f 102/122/77 94/109/64 112/141/92
f 113/142/94 114/143/95 115/144/96
f 89/104/59 88/103/58 87/102/57
f 88/103/58 116/145/97 87/102/57
f 112/141/92 94/109/64 2/2/71
f 94/109/64 59/63/50 2/2/71
f 117/146/98 22/22/99 105/125/80
f 22/22/99 21/21/81 105/125/80
f 118/147/100 119/148/101 31/31/87
f 119/148/101 30/30/102 31/31/87
f 116/149/97 88/150/58 120/151/103
f 116/149/97 120/151/103 86/136/56
f 99/119/74 108/129/86 117/152/98
f 108/129/86 22/153/99 117/152/98
f 22/153/99 108/129/86 20/154/104
f 108/129/86 107/128/85 20/154/104
f 107/155/85 29/156/84 37/157/105
f 29/156/84 36/158/106 37/157/105
f 20/159/104 107/155/85 37/157/105
f 20/159/104 37/157/105 38/160/107
f 19/161/108 20/159/104 43/162/109
f 20/159/104 38/160/107 43/162/109
f 27/163/110 49/164/111 45/165/112
f 27/163/110 45/165/112 44/166/113
f 102/167/77 33/168/114 35/132/88
f 102/167/77 35/132/88 97/131/68
f 102/167/77 112/139/92 34/140/93
f 102/167/77 34/140/93 33/168/114
f 118/169/100 31/130/87 108/129/86
f 118/169/100 108/129/86 115/144/96
f 109/133/89 83/98/53 82/97/52
f 109/133/89 82/97/52 92/107/62
f 90/105/60 109/133/89 96/111/67
f 109/133/89 103/123/78 96/111/67
f 84/99/54 86/101/56 85/100/55
f 109/133/89 90/105/60 89/104/59
f 109/133/89 89/104/59 83/98/53
f 116/145/97 86/101/56 87/102/57
f 98/118/73 113/142/94 99/119/74
f 94/109/64 95/110/65 80/95/48
f 94/109/64 80/95/48 59/63/50
f 88/150/58 91/170/61 120/151/103
f 91/170/61 121/171/115 120/151/103
f 114/143/95 104/172/79 115/144/96
f 104/172/79 122/173/116 115/144/96
f 99/119/74 113/142/94 108/129/86
f 114/143/95 121/171/115 104/172/79
f 121/171/115 91/170/61 104/172/79
f 12/12/66 123/174/117 96/111/67
f 123/174/117 104/124/79 96/111/67
f 104/172/79 123/175/117 122/173/116
f 12/12/66 11/11/118 124/176/119
f 12/12/66 124/176/119 123/174/117
f 66/177/120 24/24/121 54/54/122
f 24/24/121 17/17/123 54/54/122
f 113/142/94 115/144/96 108/129/86
f 45/165/112 49/164/111 57/92/45
f 45/165/112 57/92/45 41/91/44
f 29/156/84 27/163/110 44/166/113
f 29/156/84 44/166/113 36/158/106
f 125/178/124 63/179/125 118/147/100
f 63/179/125 119/148/101 118/147/100
f 123/175/117 124/180/119 122/173/116
f 124/180/119 48/48/126 122/173/116
f 80/181/48 95/117/65 100/120/75
f 55/182/127 19/161/108 42/183/128
f 19/161/108 43/162/109 42/183/128
f 125/184/124 118/169/100 122/173/116
f 118/169/100 115/144/96 122/173/116
f 126/185/129 117/146/98 67/186/130
f 117/146/98 105/125/80 67/186/130
f 100/120/75 99/119/74 117/152/98
f 100/120/75 117/152/98 126/187/129
f 42/183/128 46/113/69 1/116/72
f 42/183/128 1/116/72 55/182/127
f 16/16/131 15/15/132 74/85/133
f 16/16/131 74/85/133 65/188/134
f 127/189/135 58/62/136 50/50/137
f 72/190/138 128/191/139 73/192/140
f 128/191/139 64/73/141 73/192/140
f 129/193/142 76/87/143 7/194/144
f 76/87/143 77/88/145 7/194/144
f 106/195/83 75/196/82 26/197/146
f 106/195/83 26/197/146 25/198/147
f 130/199/148 131/200/149 52/52/150
f 131/200/149 53/53/151 52/52/150
f 79/90/152 130/201/148 52/202/150
f 79/90/152 52/202/150 78/89/153
f 70/80/154 129/203/142 7/7/144
f 70/80/154 7/7/144 8/8/155
f 68/78/156 106/195/83 25/198/147
f 68/78/156 25/198/147 69/79/157
f 51/69/158 62/70/159 52/202/150
f 62/70/159 78/89/153 52/202/150
f 30/30/102 119/148/101 72/83/138
f 119/148/101 128/204/139 72/83/138
f 124/176/119 11/11/118 76/87/143
f 124/176/119 76/87/143 129/193/142
f 24/24/121 66/177/120 25/25/147
f 66/177/120 69/205/157 25/25/147
f 119/148/101 63/179/125 64/206/141
f 119/148/101 64/206/141 128/204/139
f 81/207/49 127/189/135 130/199/148
f 127/189/135 131/200/149 130/199/148
f 127/189/135 50/50/137 131/200/149
f 50/50/137 53/53/151 131/200/149
f 61/68/160 5/67/161 7/194/144
f 61/68/160 7/194/144 77/88/145
f 60/64/51 81/96/49 79/90/152
f 81/96/49 130/201/148 79/90/152
f 48/48/126 124/180/119 129/203/142
f 48/48/126 129/203/142 70/80/154
f 67/186/130 105/125/80 68/208/156
f 105/125/80 106/126/83 68/208/156
f 111/137/91 132/209/162 93/210/63
f 111/137/91 93/210/63 101/138/76
f 55/211/127 126/212/129 67/77/130
f 55/211/127 67/77/130 54/82/122
f 81/207/49 80/181/48 100/120/75
f 81/207/49 100/120/75 127/189/135
f 93/210/63 132/209/162 95/117/65
f 132/209/162 98/118/73 95/117/65
f 73/192/140 64/73/141 74/213/133
f 64/73/141 65/74/134 74/213/133
f 120/151/103 121/171/115 132/209/162
f 120/151/103 132/209/162 111/137/91
f 111/137/91 86/136/56 120/151/103
f 125/214/124 49/215/111 63/71/125
f 49/215/111 13/75/163 63/71/125
s off
